<svg width="36" height="36" viewBox="0 0 36 36" fill="none" xmlns="http://www.w3.org/2000/svg">
<path fill-rule="evenodd" clip-rule="evenodd" d="M19.5 7.5C22.2614 7.5 24.5 9.73858 24.5 12.5V31.5034C24.5 32.8841 25.6193 34.0034 27 34.0034C28.3807 34.0034 29.5 32.8841 29.5 31.5034V12.5C29.5 6.97716 25.0228 2.5 19.5 2.5C13.9772 2.5 9.5 6.97715 9.5 12.5V21.5C9.5 22.8807 10.6193 24 12 24C13.3807 24 14.5 22.8807 14.5 21.5V12.5C14.5 9.73858 16.7386 7.5 19.5 7.5Z" fill="#3588FD"/>
<path d="M11.3666 28.0639C11.6634 28.5092 12.3178 28.5092 12.6146 28.0639L19.0509 18.4096C19.412 17.8681 18.959 17.1552 18.3154 17.252L11.9907 18.2031L5.66604 17.252C5.02237 17.1552 4.5694 17.868 4.93046 18.4096L11.3666 28.0639Z" fill="#3588FD"/>
</svg>
