<svg width="36" height="36" viewBox="0 0 36 36" fill="none" xmlns="http://www.w3.org/2000/svg">
<path fill-rule="evenodd" clip-rule="evenodd" d="M18.5019 8.5L18.6016 8.5L20.5 8.5C21.8807 8.5 23 9.61929 23 11C23 12.3807 21.8807 13.5 20.5 13.5L18.6016 13.5C16.8796 13.5 15.7385 13.5019 14.8631 13.5734C14.0169 13.6426 13.6415 13.764 13.411 13.8815C12.7525 14.217 12.217 14.7525 11.8815 15.411C11.764 15.6416 11.6426 16.0169 11.5734 16.8628C11.5019 17.7379 11.5 18.8786 11.5 20.6V31.5034C11.5 32.8841 10.3807 34.0034 9 34.0034C7.61929 34.0034 6.5 32.8841 6.5 31.5034V20.6L6.5 20.5003C6.49996 18.9051 6.49993 17.5587 6.59005 16.4556C6.68443 15.3005 6.88997 14.194 7.42645 13.1411C8.24137 11.5417 9.54171 10.2414 11.1411 9.42644C12.1941 8.88992 13.3008 8.68441 14.4561 8.59004C15.5593 8.49993 16.9061 8.49996 18.5019 8.5Z" fill="#3588FD"/>
<path d="M30.0639 11.6334C30.5092 11.3366 30.5092 10.6822 30.0639 10.3854L20.4096 3.94906C19.8681 3.58799 19.1552 4.04095 19.252 4.68463L20.2031 11.0093L19.252 17.334C19.1551 17.9776 19.868 18.4306 20.4096 18.0695L30.0639 11.6334Z" fill="#3588FD"/>
</svg>
