<svg width="36" height="36" viewBox="0 0 36 36" fill="none" xmlns="http://www.w3.org/2000/svg">
<path fill-rule="evenodd" clip-rule="evenodd" d="M23.5007 7.48456C23.5008 10.7294 23.5008 14.9793 23.5006 18.9999C23.5004 22.25 23.5004 26.0009 23.5004 28.9393L23.5005 31.5033C23.5005 32.8839 24.6198 34.0032 26.0004 34.0032C27.3812 34.0032 28.5005 32.8839 28.5005 31.5032L28.5004 28.9392C28.5004 26.0009 28.5004 22.2501 28.5006 19.0002C28.5008 14.9794 28.5008 10.7293 28.5007 7.48445L28.5006 4.50017C28.5005 3.1195 27.3813 2.00027 26.0006 2.00026C24.6199 2.00025 23.5005 3.11959 23.5006 4.50034L23.5007 7.48456Z" fill="#898989" fill-opacity="0.3"/>
<path fill-rule="evenodd" clip-rule="evenodd" d="M28.5 15.9514C28.5 12.3884 25.6116 9.5 22.0486 9.5C20.0972 9.5 18.2507 10.3832 17.0259 11.9024L12.1227 17.9847C11.2562 19.0596 11.4251 20.6334 12.5 21.5C13.5749 22.3666 15.1488 22.1976 16.0153 21.1227L20.9186 15.0405C21.1941 14.6987 21.6095 14.5 22.0486 14.5C22.8502 14.5 23.5 15.1498 23.5 15.9514V31.5C23.5 32.8807 24.6193 34 26 34C27.3807 34 28.5 32.8807 28.5 31.5V15.9514Z" fill="#3588FD"/>
<path d="M8.1714 28.0338C7.66332 28.2019 7.14769 27.7991 7.1879 27.2654L8.05981 15.6951C8.10872 15.046 8.90456 14.7631 9.35219 15.2357L13.7505 19.8791L19.32 23.0234C19.8868 23.3434 19.8049 24.1841 19.1869 24.3885L8.1714 28.0338Z" fill="#3588FD"/>
</svg>
