<svg width="36" height="36" viewBox="0 0 36 36" fill="none" xmlns="http://www.w3.org/2000/svg">
<circle cx="26.5" cy="13.5" r="7" stroke="#898989" stroke-opacity="0.3" stroke-width="5"/>
<path fill-rule="evenodd" clip-rule="evenodd" d="M17.3269 11H8.5V16H17.5L19.5 16C20.8807 16 22 14.8807 22 13.5C22 10.9807 23.9807 9.00001 26.5 9.00001C29.0193 9.00001 31 10.9807 31 13.5C31 16.0193 29.0193 18 26.5 18C25.1193 18 24 19.1193 24 20.5V23V30.5C24 31.8807 25.1193 33 26.5 33C27.8807 33 29 31.8807 29 30.5L29 23V22.6731C33.0519 21.5866 36 17.9141 36 13.5C36 8.21929 31.7807 4.00001 26.5 4.00001C22.0859 4.00001 18.4134 6.94814 17.3269 11Z" fill="#3588FD"/>
<path d="M0.936062 14.1334C0.49076 13.8366 0.490754 13.1822 0.936052 12.8854L10.5904 6.44906C11.1319 6.08799 11.8448 6.54095 11.748 7.18463L10.7969 13.5093L11.748 19.834C11.8448 20.4776 11.132 20.9306 10.5904 20.5695L0.936062 14.1334Z" fill="#3588FD"/>
</svg>
