<svg width="39" height="36" viewBox="0 0 39 36" fill="none" xmlns="http://www.w3.org/2000/svg">
<circle cx="28.5" cy="13.5" r="7" stroke="#898989" stroke-opacity="0.3" stroke-width="5"/>
<path fill-rule="evenodd" clip-rule="evenodd" d="M19.0768 14.8384L10.7137 19.8563L13.2862 24.1437L23.2862 18.1437C24.4064 17.4716 24.8203 16.0504 24.2361 14.882C24.021 14.4518 24 13.9781 24 13.5C24 10.9807 25.9807 9.00001 28.5 9.00001C31.0193 9.00001 33 10.9807 33 13.5C33 16.0193 31.0193 18 28.5 18C27.1193 18 26 19.1193 26 20.5V23V30.5C26 31.8807 27.1193 33 28.5 33C29.8807 33 31 31.8807 31 30.5L31 23V22.6731C35.0518 21.5866 38 17.9141 38 13.5C38 8.21929 33.7807 4.00001 28.5 4.00001C23.2193 4.00001 19 8.21929 19 13.5C19 13.5127 19 13.5259 19 13.5398C18.9997 13.7994 18.9993 14.2626 19.0768 14.8384Z" fill="#3588FD"/>
<path d="M5.12737 26.6524C4.5933 26.6179 4.26612 26.0512 4.50333 25.5715L9.64604 15.1703C9.93454 14.5869 10.7784 14.6227 11.0164 15.2285L13.355 21.1814L17.3411 26.1832C17.7468 26.6922 17.3559 27.4409 16.7063 27.399L5.12737 26.6524Z" fill="#3588FD"/>
</svg>
