<svg width="36" height="36" viewBox="0 0 36 36" fill="none" xmlns="http://www.w3.org/2000/svg">
<path fill-rule="evenodd" clip-rule="evenodd" d="M17.4981 8.5L17.3984 8.5L15.5 8.5C14.1193 8.5 13 9.61929 13 11C13 12.3807 14.1193 13.5 15.5 13.5L17.3984 13.5C19.1204 13.5 20.2615 13.5019 21.1369 13.5734C21.9831 13.6426 22.3585 13.764 22.589 13.8815C23.2475 14.217 23.783 14.7525 24.1185 15.411C24.236 15.6416 24.3574 16.0169 24.4266 16.8628C24.4981 17.7379 24.5 18.8786 24.5 20.6V31.5034C24.5 32.8841 25.6193 34.0034 27 34.0034C28.3807 34.0034 29.5 32.8841 29.5 31.5034V20.6L29.5 20.5003C29.5 18.9051 29.5001 17.5587 29.4099 16.4556C29.3156 15.3005 29.11 14.194 28.5736 13.1411C27.7586 11.5417 26.4583 10.2414 24.8589 9.42644C23.8059 8.88992 22.6992 8.68441 21.5439 8.59004C20.4407 8.49993 19.0939 8.49996 17.4981 8.5Z" fill="#3588FD"/>
<path d="M5.93606 11.6334C5.49076 11.3366 5.49075 10.6822 5.93605 10.3854L15.5904 3.94906C16.1319 3.58799 16.8448 4.04095 16.748 4.68463L15.7969 11.0093L16.748 17.334C16.8449 17.9776 16.132 18.4306 15.5904 18.0695L5.93606 11.6334Z" fill="#3588FD"/>
</svg>
