<svg width="37" height="39" viewBox="0 0 37 39" fill="none" xmlns="http://www.w3.org/2000/svg">
<path fill-rule="evenodd" clip-rule="evenodd" d="M9.47961 11.1726C10.4518 10.565 11.7351 10.8604 12.4245 11.7764C16.4848 17.1713 19.6203 23.6897 19.6203 30.8684V34.5C19.6203 35.8807 18.5011 37 17.1203 37C15.7396 37 14.6203 35.8807 14.6203 34.5V30.8684C14.6203 25.1624 12.1175 19.6832 8.42955 14.7832C7.59927 13.68 7.94915 12.1292 9.12 11.3974L9.47961 11.1726Z" fill="#898989" fill-opacity="0.3"/>
<path fill-rule="evenodd" clip-rule="evenodd" d="M22.4765 19.1827C23.2894 17.7627 24.3388 16.4461 26.3945 14.0458C27.2926 12.9971 27.1798 11.4195 26.1351 10.5167L24.4609 9.06992C24.3408 8.96618 24.1594 8.9794 24.0557 9.09944C21.1167 12.5001 19.4107 14.4741 18.1372 16.6986C16.6979 19.2127 15.6806 21.9458 15.1258 24.7891C14.6349 27.3049 14.635 29.914 14.6352 34.4086C14.6352 34.5035 14.6352 34.5993 14.6352 34.6959C14.6352 35.9701 15.6681 37.003 16.9423 37.003H17.3282C18.6023 37.003 19.6352 35.9701 19.6352 34.6959C19.6352 29.8327 19.646 27.7315 20.0332 25.7468C20.4834 23.4399 21.3088 21.2225 22.4765 19.1827Z" fill="#3588FD"/>
<path d="M29.9052 6.98192C29.964 6.44998 29.4628 6.02938 28.9491 6.17967L17.813 9.43812C17.1882 9.62091 17.077 10.4582 17.6323 10.7978L23.0886 14.1345L27.3222 18.9286C27.7531 19.4165 28.5583 19.1616 28.6299 18.5146L29.9052 6.98192Z" fill="#3588FD"/>
</svg>
