<svg width="36" height="41" viewBox="0 0 36 41" fill="none" xmlns="http://www.w3.org/2000/svg">
<circle cx="23.4406" cy="23.0606" r="7" stroke="#898989" stroke-opacity="0.3" stroke-width="5"/>
<path fill-rule="evenodd" clip-rule="evenodd" d="M18.0671 15.2063L11.89 9.64236L8.5437 13.3575L16.3824 20.4181C16.8874 20.873 17.5558 21.1026 18.2336 21.0542C18.9115 21.0058 19.5405 20.6836 19.9757 20.1616C20.7904 19.1845 22.0218 18.5606 23.4406 18.5606C25.9599 18.5606 27.9406 20.5413 27.9406 23.0606C27.9406 25.5799 25.9599 27.5606 23.4406 27.5606C22.0599 27.5606 20.9406 28.6799 20.9406 30.0606V32.5606V38.4999C20.9406 39.8806 22.0599 40.9999 23.4406 40.9999C24.8213 40.9999 25.9406 39.8806 25.9406 38.4999V32.5606V32.2337C29.9925 31.1472 32.9406 27.4747 32.9406 23.0606C32.9406 17.7799 28.7213 13.5606 23.4406 13.5606C21.4461 13.5606 19.5952 14.1645 18.0671 15.2063Z" fill="#3588FD"/>
<path d="M5.87081 7.45301C5.76585 6.92822 6.22853 6.46553 6.75333 6.57048L18.1311 8.84595C18.7694 8.9736 18.9532 9.79799 18.4296 10.1847L13.2848 13.9843L9.48516 19.1291C9.09846 19.6527 8.27408 19.4689 8.14642 18.8306L5.87081 7.45301Z" fill="#3588FD"/>
</svg>
