<svg width="37" height="39" viewBox="0 0 37 39" fill="none" xmlns="http://www.w3.org/2000/svg">
<path fill-rule="evenodd" clip-rule="evenodd" d="M27.5204 11.1726C26.5482 10.565 25.2649 10.8604 24.5755 11.7764C20.5152 17.1713 17.3797 23.6897 17.3797 30.8684V34.5C17.3797 35.8807 18.4989 37 19.8797 37C21.2604 37 22.3797 35.8807 22.3797 34.5V30.8684C22.3797 25.1624 24.8825 19.6832 28.5705 14.7832C29.4007 13.68 29.0508 12.1292 27.88 11.3974L27.5204 11.1726Z" fill="#898989" fill-opacity="0.3"/>
<path fill-rule="evenodd" clip-rule="evenodd" d="M14.5235 19.1827C13.7106 17.7627 12.6612 16.4461 10.6055 14.0458C9.70743 12.9971 9.82022 11.4195 10.8649 10.5167L12.5391 9.06992C12.6592 8.96618 12.8406 8.9794 12.9443 9.09944C15.8833 12.5001 17.5893 14.4741 18.8628 16.6986C20.3021 19.2127 21.3194 21.9458 21.8742 24.7891C22.3651 27.3049 22.365 29.914 22.3648 34.4086C22.3648 34.5035 22.3648 34.5993 22.3648 34.6959C22.3648 35.9701 21.3319 37.003 20.0577 37.003H19.6718C18.3977 37.003 17.3648 35.9701 17.3648 34.6959C17.3648 29.8327 17.354 27.7315 16.9668 25.7468C16.5166 23.4399 15.6912 21.2225 14.5235 19.1827Z" fill="#3588FD"/>
<path d="M7.09481 6.98192C7.03598 6.44998 7.53723 6.02938 8.05088 6.17967L19.187 9.43812C19.8118 9.62091 19.923 10.4582 19.3677 10.7978L13.9114 14.1345L9.67776 18.9286C9.2469 19.4165 8.44168 19.1616 8.37013 18.5146L7.09481 6.98192Z" fill="#3588FD"/>
</svg>
