<svg width="36" height="36" viewBox="0 0 36 36" fill="none" xmlns="http://www.w3.org/2000/svg">
<path fill-rule="evenodd" clip-rule="evenodd" d="M18.8736 29.0218C19.0827 29.0216 19.253 28.8543 19.259 28.6453C19.2659 28.4017 19.2774 28.0515 19.2958 27.6282C19.3326 26.7799 19.3964 25.6459 19.5043 24.4914C19.5892 23.5841 20.0227 22.4676 20.9576 21.5826C21.8716 20.7174 23.3453 19.9978 25.6562 19.9978H26.4607L26.7939 19.2656C27.7563 17.1515 28 15.7504 28 13.8C28 8.70842 23.9376 4 18 4C12.0624 4 8 8.70842 8 13.8C8 15.7504 8.24375 17.1515 9.20606 19.2656L9.53932 19.9978H10.3438C12.6547 19.9978 14.1263 20.7173 15.0384 21.582C15.9715 22.4665 16.404 23.583 16.489 24.4914C16.597 25.6469 16.6625 26.7818 16.701 27.6306C16.7202 28.0542 16.7325 28.4047 16.7401 28.6485C16.7465 28.8573 16.9171 29.024 17.126 29.0238L18.8736 29.0218ZM18 34C22 34 26 33 26 31.5C26 30.0926 23.1245 28.2452 22.7692 29.2611L22.7692 29.2612C22.7061 29.4416 22.6745 29.5319 22.6589 29.5623C22.6411 29.5973 22.6343 29.608 22.6104 29.6391C22.5895 29.6662 22.5843 29.6714 22.5739 29.6817C22.1697 30.0811 20.9221 31 18 31C15.0779 31 13.8303 30.0811 13.4261 29.6817C13.4157 29.6714 13.4105 29.6662 13.3896 29.6391C13.3657 29.608 13.3589 29.5973 13.3411 29.5623C13.3255 29.5319 13.2939 29.4416 13.2308 29.2611C12.8755 28.2452 10 30.0926 10 31.5C10 32.8807 14 34 18 34Z" fill="#3588FD"/>
</svg>
