<svg width="36" height="40" viewBox="0 0 36 40" fill="none" xmlns="http://www.w3.org/2000/svg">
<path fill-rule="evenodd" clip-rule="evenodd" d="M22.5 11.0031C23.4763 11.9794 23.4763 13.5623 22.5 14.5386L16.0795 20.9592C14.9576 22.081 14.6962 22.3652 14.5157 22.6597C14.3238 22.9729 14.1824 23.3143 14.0967 23.6714C14.016 24.0073 14 24.3931 14 25.9796V35.5065C14 36.8872 12.8807 38.0065 11.5 38.0065C10.1193 38.0065 8.99996 36.8872 8.99996 35.5065V25.9796C8.99996 25.9022 8.99991 25.8257 8.99986 25.75C8.999 24.507 8.99829 23.4894 9.23482 22.5042C9.44303 21.6369 9.78647 20.8077 10.2525 20.0472C10.7819 19.1833 11.502 18.4642 12.3815 17.5859C12.4351 17.5324 12.4892 17.4784 12.5439 17.4236L18.9644 11.0031C19.9407 10.0268 21.5236 10.0267 22.5 11.0031Z" fill="#3588FD"/>
<path d="M27.636 7.39546C27.7593 6.87465 27.313 6.39609 26.7849 6.48267L15.3346 8.35967C14.6923 8.46496 14.4798 9.28244 14.9896 9.68717L19.9986 13.664L23.6164 18.9383C23.9846 19.4751 24.8149 19.3202 24.9647 18.6867L27.636 7.39546Z" fill="#3588FD"/>
</svg>
