<svg width="36" height="36" viewBox="0 0 36 36" fill="none" xmlns="http://www.w3.org/2000/svg">
<path fill-rule="evenodd" clip-rule="evenodd" d="M12.4993 7.48456C12.4992 10.7294 12.4992 14.9793 12.4994 18.9999C12.4996 22.25 12.4996 26.0009 12.4996 28.9393L12.4995 31.5033C12.4995 32.8839 11.3802 34.0032 9.99955 34.0032C8.6188 34.0032 7.49947 32.8839 7.4995 31.5032L7.49957 28.9392C7.49961 26.0009 7.49961 22.2501 7.49944 19.0002C7.49923 14.9794 7.49924 10.7293 7.49931 7.48445L7.49941 4.50017C7.49946 3.1195 8.61872 2.00027 9.99939 2.00026C11.3801 2.00025 12.4995 3.11959 12.4994 4.50034L12.4993 7.48456Z" fill="#898989" fill-opacity="0.3"/>
<path fill-rule="evenodd" clip-rule="evenodd" d="M7.5 15.9514C7.5 12.3884 10.3884 9.5 13.9514 9.5C15.9028 9.5 17.7493 10.3832 18.9741 11.9024L23.8773 17.9847C24.7438 19.0596 24.5749 20.6334 23.5 21.5C22.4251 22.3666 20.8512 22.1976 19.9847 21.1227L15.0814 15.0405C14.8059 14.6987 14.3905 14.5 13.9514 14.5C13.1498 14.5 12.5 15.1498 12.5 15.9514V31.5C12.5 32.8807 11.3807 34 10 34C8.61929 34 7.5 32.8807 7.5 31.5V15.9514Z" fill="#3588FD"/>
<path d="M27.8286 28.0338C28.3367 28.2019 28.8523 27.7991 28.8121 27.2654L27.9402 15.6951C27.8913 15.046 27.0954 14.7631 26.6478 15.2357L22.2495 19.8791L16.68 23.0234C16.1132 23.3434 16.1951 24.1841 16.8131 24.3885L27.8286 28.0338Z" fill="#3588FD"/>
</svg>
