<svg width="36" height="36" viewBox="0 0 36 36" fill="none" xmlns="http://www.w3.org/2000/svg">
<circle cx="9.5" cy="13.5" r="7" stroke="#898989" stroke-opacity="0.3" stroke-width="5"/>
<path fill-rule="evenodd" clip-rule="evenodd" d="M9.5 33C8.11929 33 7 31.8807 7 30.5L7 23L7 20.5C7 19.1193 8.11928 18 9.49999 18C12.0193 18 14 16.0193 14 13.5C14 12.1193 15.1193 11 16.5 11L19 11H28V16H19H18.6731C17.7999 19.2564 15.2564 21.7999 12 22.6731V23L12 30.5C12 31.8807 10.8807 33 9.5 33Z" fill="#3588FD"/>
<path d="M35.0639 14.1334C35.5092 13.8366 35.5092 13.1822 35.0639 12.8854L25.4096 6.44906C24.8681 6.08799 24.1552 6.54095 24.252 7.18463L25.2031 13.5093L24.252 19.834C24.1552 20.4776 24.868 20.9306 25.4096 20.5695L35.0639 14.1334Z" fill="#3588FD"/>
</svg>
