<svg width="36" height="36" viewBox="0 0 36 36" fill="none" xmlns="http://www.w3.org/2000/svg">
<circle cx="18" cy="9.5" r="7" stroke="#898989" stroke-opacity="0.3" stroke-width="5"/>
<path fill-rule="evenodd" clip-rule="evenodd" d="M15.5 29.5L15.5 19V18.6807C11.3774 17.5959 8.49998 13.8754 8.49998 9.5C8.49998 4.25329 12.7533 -3.8147e-06 18 -3.8147e-06C23.2189 -3.8147e-06 27.5636 4.2328 27.4998 9.53012C27.4999 10.2331 27.3172 10.943 27.1045 11.5452C26.7899 12.4357 25.8848 12.982 24.9404 12.982C24.0571 12.982 23.2491 12.4846 22.8512 11.696L22.7788 11.5526C22.5955 11.1893 22.4995 10.788 22.4975 10.381C22.4962 10.1171 22.4957 9.83696 22.5002 9.46988C22.5295 7.03576 20.513 5 18 5C15.5147 5 13.5 7.01472 13.5 9.5C13.5 12.0168 15.412 14 18 14C19.3807 14 20.5 15.1193 20.5 16.5V19L20.5 29.5L15.5 29.5Z" fill="#3588FD"/>
<path d="M17.3666 35.0639C17.6634 35.5092 18.3178 35.5092 18.6146 35.0639L25.0509 25.4096C25.412 24.8681 24.959 24.1552 24.3154 24.252L17.9907 25.2031L11.666 24.252C11.0224 24.1552 10.5694 24.868 10.9305 25.4096L17.3666 35.0639Z" fill="#3588FD"/>
</svg>
