<svg width="39" height="41" viewBox="0 0 39 41" fill="none" xmlns="http://www.w3.org/2000/svg">
<circle cx="14.7579" cy="23.0606" r="7" stroke="#898989" stroke-opacity="0.3" stroke-width="5"/>
<path fill-rule="evenodd" clip-rule="evenodd" d="M14.7579 40.9999C13.3772 40.9999 12.2579 39.8807 12.2579 38.4999L12.2579 32.5606V30.0606C12.2579 28.6799 13.3772 27.5606 14.7579 27.5606C17.2772 27.5606 19.2579 25.5799 19.2579 23.0606C19.2579 21.9351 18.8662 20.9331 18.2229 20.1617C17.3778 19.1482 17.4659 17.6525 18.4241 16.7452L25.8811 9.68458L29.3189 13.3153L23.3467 18.97C23.9328 20.2102 24.2579 21.5979 24.2579 23.0606C24.2579 27.4748 21.3098 31.1473 17.2579 32.2337V32.5606V38.4999C17.2579 39.8807 16.1386 40.9999 14.7579 40.9999Z" fill="#3588FD"/>
<path d="M31.9847 5.7906C32.5076 5.67649 32.9783 6.13103 32.8825 6.65758L30.806 18.0733C30.6895 18.7137 29.8684 18.9119 29.4726 18.3951L25.5838 13.3175L20.3735 9.60817C19.8432 9.23067 20.0126 8.40321 20.6485 8.26443L31.9847 5.7906Z" fill="#3588FD"/>
</svg>
