<svg width="36" height="36" viewBox="0 0 36 36" fill="none" xmlns="http://www.w3.org/2000/svg">
<circle cx="18" cy="22" r="6" stroke="#898989" stroke-opacity="0.3" stroke-width="5"/>
<path fill-rule="evenodd" clip-rule="evenodd" d="M20.5 13.8622V5H15.5V14V16C15.5 17.3807 16.6193 18.5 18 18.5C20.0596 18.5 21.5 20.2155 21.5 22C21.5 23.7845 20.0596 25.5 18 25.5C16.6193 25.5 15.5 26.6193 15.5 28V30V33.5C15.5 34.8807 16.6193 36 18 36C19.3807 36 20.5 34.8807 20.5 33.5V30.1378C24.2023 29.0195 26.5 25.4861 26.5 22C26.5 18.5139 24.2023 14.9805 20.5 13.8622Z" fill="#3588FD"/>
<path d="M17.3671 0.994319C17.6619 0.531193 18.3379 0.531188 18.6326 0.994311L24.1077 9.59781C24.4544 10.1427 23.9962 10.8418 23.3582 10.7413L18 9.89714L12.6417 10.7413C12.0038 10.8419 11.5455 10.1427 11.8923 9.59783L17.3671 0.994319Z" fill="#3588FD"/>
</svg>
