<svg width="36" height="40" viewBox="0 0 36 40" fill="none" xmlns="http://www.w3.org/2000/svg">
<path fill-rule="evenodd" clip-rule="evenodd" d="M13.5 11.0031C12.5237 11.9794 12.5237 13.5623 13.5 14.5386L19.9205 20.9592C21.0424 22.081 21.3038 22.3652 21.4843 22.6597C21.6762 22.9729 21.8176 23.3143 21.9033 23.6714C21.984 24.0073 22 24.3931 22 25.9796V35.5065C22 36.8872 23.1193 38.0065 24.5 38.0065C25.8807 38.0065 27 36.8872 27 35.5065V25.9796C27 25.9022 27.0001 25.8257 27.0001 25.75C27.001 24.507 27.0017 23.4894 26.7652 22.5042C26.557 21.6369 26.2135 20.8077 25.7475 20.0472C25.2181 19.1833 24.498 18.4642 23.6185 17.5859C23.5649 17.5324 23.5108 17.4784 23.4561 17.4236L17.0356 11.0031C16.0593 10.0268 14.4764 10.0267 13.5 11.0031Z" fill="#3588FD"/>
<path d="M8.36395 7.39546C8.24074 6.87465 8.68699 6.39609 9.21513 6.48267L20.6654 8.35967C21.3077 8.46496 21.5202 9.28244 21.0104 9.68717L16.0014 13.664L12.3836 18.9383C12.0154 19.4751 11.1851 19.3202 11.0353 18.6867L8.36395 7.39546Z" fill="#3588FD"/>
</svg>
