<svg width="39" height="36" viewBox="0 0 39 36" fill="none" xmlns="http://www.w3.org/2000/svg">
<circle cx="10.5" cy="13.5" r="7" stroke="#898989" stroke-opacity="0.3" stroke-width="5"/>
<path fill-rule="evenodd" clip-rule="evenodd" d="M10.5 33C9.11929 33 8 31.8807 8 30.5L8 23V20.5C8 19.1193 9.11929 18 10.5 18C12.4565 18 14.0746 16.8085 14.7097 15.1199C14.9727 14.4207 15.5346 13.8757 16.2416 13.6342C16.9485 13.3927 17.7264 13.4801 18.3622 13.8723L28.0888 19.8723L25.4637 24.1277L17.9124 19.4696C16.6752 21.0087 14.9662 22.1455 13 22.6729V23L13 30.5C13 31.8807 11.8807 33 10.5 33Z" fill="#3588FD"/>
<path d="M33.6995 26.6747C34.2336 26.6403 34.5608 26.0736 34.3236 25.5939L29.1809 15.1927C28.8924 14.6092 28.0485 14.6451 27.8105 15.2509L25.4719 21.2038L21.4858 26.2055C21.0801 26.7146 21.471 27.4633 22.1206 27.4214L33.6995 26.6747Z" fill="#3588FD"/>
</svg>
