<svg width="36" height="36" viewBox="0 0 36 36" fill="none" xmlns="http://www.w3.org/2000/svg">
<path fill-rule="evenodd" clip-rule="evenodd" d="M2 30.9932C2 32.3739 3.12704 33.5143 4.4901 33.2942C11.8667 32.103 17.5 25.7059 17.5 17.9932C17.5 10.2804 11.8667 3.88336 4.4901 2.69212C3.12704 2.47201 2 3.61245 2 4.99316C2 6.37388 3.13537 7.46251 4.47739 7.78711C9.08082 8.90058 12.5 13.0476 12.5 17.9932C12.5 22.9388 9.08082 27.0857 4.47738 28.1992C3.13537 28.5238 2 29.6125 2 30.9932Z" fill="#898989" fill-opacity="0.4"/>
<path fill-rule="evenodd" clip-rule="evenodd" d="M13.1973 15.2679C13.6686 14.7773 14.3196 14.5 15 14.5H17.5H28V19.5H17.5H17.4042C16.6261 26.3801 11.685 32.2107 4.49171 33.3128C3.12692 33.5219 2 32.3807 2.00001 31C2.00001 29.6193 3.13504 28.5331 4.48006 28.2212C9.44441 27.0699 12.7177 22.4925 12.502 17.0999C12.4748 16.4201 12.7259 15.7585 13.1973 15.2679Z" fill="#3588FD"/>
<path d="M35.0639 17.6334C35.5092 17.3366 35.5092 16.6822 35.0639 16.3854L25.4096 9.94906C24.8681 9.58799 24.1552 10.041 24.252 10.6846L25.2031 17.0093L24.252 23.334C24.1552 23.9776 24.868 24.4306 25.4096 24.0695L35.0639 17.6334Z" fill="#3588FD"/>
</svg>
