<svg width="28" height="38" viewBox="0 0 28 38" fill="none" xmlns="http://www.w3.org/2000/svg">
<path d="M4.5 4.5L10.3489 11.5802L14 16L17.6591 11.5705L23.5 4.5C23.5 4.5 20 1 14 1C8 1 4.5 4.5 4.5 4.5Z" fill="white"/>
<path d="M4 13.5V24C4 25.6569 5.34315 27 7 27H9.86957L14 22L18.1304 27H21C22.6569 27 24 25.6569 24 24V13.4936L19.05 13.51L17.6591 11.5705L14 16L10.3489 11.5802L8.97 13.5H4Z" fill="white"/>
<path d="M4.5 33.5C4.5 33.5 8 37 14 37C20 37 23.5 33.5 23.5 33.5L18.1304 27H9.86957L4.5 33.5Z" fill="white"/>
<path d="M14 22L9.86957 27H18.1304L14 22Z" fill="white"/>
<path fill-rule="evenodd" clip-rule="evenodd" d="M13.9929 2C10.8316 2 8.14784 2.94291 6 4.82872L7.59775 6.70109C9.28718 5.21327 11.3992 4.47019 13.9929 4.47019C16.5942 4.47019 18.7112 5.21746 20.4014 6.71201L22 4.83963C19.8497 2.9471 17.1617 2 13.9929 2ZM13.9279 6.31654C11.9651 6.31654 10.2432 6.92107 8.81211 8.12343L10.4107 9.99496C11.3875 9.1864 12.5435 8.78589 13.9279 8.78589C15.314 8.78589 16.4716 9.18724 17.4501 10H17.5935L19.1312 8.19815C17.6843 6.94626 15.9316 6.31654 13.9279 6.31654ZM18.5 14.5H23V24C23 25.1046 22.1046 26 21 26H7C5.89543 26 5 25.1046 5 24V14.5H9.5L11.25 12H16.75L18.5 14.5ZM18.5 20C18.5 22.4853 16.4853 24.5 14 24.5C11.5147 24.5 9.5 22.4853 9.5 20C9.5 17.5147 11.5147 15.5 14 15.5C16.4853 15.5 18.5 17.5147 18.5 20ZM14.0007 22.7325C15.4918 22.7325 16.7007 21.5314 16.7007 20.0497C16.7007 18.5681 15.4918 17.367 14.0007 17.367C12.5095 17.367 11.3007 18.5681 11.3007 20.0497C11.3007 21.5314 12.5095 22.7325 14.0007 22.7325ZM6 33.1713C8.14784 35.0571 10.8316 36 13.9929 36C17.1617 36 19.8497 35.0529 22 33.1604L20.4014 31.288C18.7112 32.7825 16.5942 33.5298 13.9929 33.5298C11.3992 33.5298 9.28718 32.7867 7.59775 31.2989L6 33.1713ZM8.81211 29.8766C10.2432 31.0789 11.9651 31.6835 13.9279 31.6835C15.9316 31.6835 17.6843 31.0537 19.1312 29.8018L17.5935 28H17.4501C16.4716 28.8128 15.314 29.2141 13.9279 29.2141C12.5435 29.2141 11.3875 28.8136 10.4107 28.005L8.81211 29.8766Z" fill="#2A2A2A"/>
</svg>
