<svg width="28" height="28" viewBox="0 0 28 28" fill="none" xmlns="http://www.w3.org/2000/svg">
<path d="M4 23V12.5H8.97L9.96468 11.1151L4.5 4.5C4.5 4.5 8 1 14 1C20 1 23.5 4.5 23.5 4.5L18.043 11.1058L19.05 12.51L24 12.4936V23C24 24.6569 22.6569 26 21 26H7C5.34315 26 4 24.6569 4 23Z" fill="white"/>
<path fill-rule="evenodd" clip-rule="evenodd" d="M13.9929 2C10.8316 2 8.14784 2.94291 6 4.82872L7.59775 6.70109C9.28718 5.21327 11.3992 4.47019 13.9929 4.47019C16.5942 4.47019 18.7112 5.21746 20.4014 6.71201L22 4.83963C19.8497 2.9471 17.1617 2 13.9929 2ZM13.9279 6.31654C11.9651 6.31654 10.2432 6.92107 8.81211 8.12343L10.4107 9.99496C11.3875 9.1864 12.5435 8.78589 13.9279 8.78589C15.314 8.78589 16.4716 9.18724 17.4501 10H17.5935L19.1312 8.19815C17.6843 6.94626 15.9316 6.31654 13.9279 6.31654ZM23 13.5H18.5L16.75 11H11.25L9.5 13.5H5V23C5 24.1046 5.89543 25 7 25H21C22.1046 25 23 24.1046 23 23V13.5ZM14 23.5C16.4853 23.5 18.5 21.4853 18.5 19C18.5 16.5147 16.4853 14.5 14 14.5C11.5147 14.5 9.5 16.5147 9.5 19C9.5 21.4853 11.5147 23.5 14 23.5ZM16.7007 19.0497C16.7007 20.5314 15.4918 21.7325 14.0007 21.7325C12.5095 21.7325 11.3007 20.5314 11.3007 19.0497C11.3007 17.5681 12.5095 16.367 14.0007 16.367C15.4918 16.367 16.7007 17.5681 16.7007 19.0497Z" fill="#2A2A2A"/>
</svg>
