<svg width="30" height="24" viewBox="0 0 30 24" fill="none" xmlns="http://www.w3.org/2000/svg">
<path d="M3 12L2.27417 11.3121L1.62226 12L2.27417 12.6879L3 12ZM3 12C2.27417 12.6879 2.27431 12.688 2.27448 12.6882L2.275 12.6887L2.27669 12.6905L2.28265 12.6968L2.30475 12.7199C2.32396 12.74 2.35204 12.7693 2.3886 12.8071C2.46171 12.8828 2.56872 12.9928 2.70635 13.1322C2.98155 13.411 3.37951 13.8078 3.87391 14.2833C4.86158 15.2332 6.23951 16.5024 7.7962 17.7744C9.34912 19.0432 11.1011 20.3323 12.8357 21.3089C14.5435 22.2704 16.3563 23 18 23C24.0751 23 29 18.0751 29 12C29 5.92487 24.0751 1 18 1C16.3563 1 14.5435 1.7296 12.8357 2.69112C11.1011 3.66773 9.34912 4.95676 7.7962 6.22563C6.23951 7.49758 4.86158 8.76685 3.87391 9.71675C3.37951 10.1922 2.98155 10.589 2.70635 10.8678C2.56872 11.0072 2.46171 11.1172 2.3886 11.1929C2.35204 11.2307 2.32396 11.26 2.30475 11.2801L2.28265 11.3032L2.27669 11.3095L2.275 11.3113L2.27448 11.3118C2.27431 11.312 2.27417 11.3121 3 12Z" fill="#F5B001" stroke="white" stroke-width="2"/>
<path d="M17.3607 16.7287V13.75L14.9778 11.9628L14.999 12.9999L12.999 16.4999" stroke="#3C3C3C" stroke-width="1.78724"/>
<circle cx="16.7872" cy="7.78724" r="1.78724" fill="#3C3C3C"/>
<path d="M12.5 9.49988L21 14.4999" stroke="#3C3C3C" stroke-width="1.78724" stroke-linecap="round"/>
<path fill-rule="evenodd" clip-rule="evenodd" d="M24.337 16.7237C24.597 16.7237 24.8078 16.5129 24.8078 16.2529C24.8078 16.171 24.7864 16.0905 24.7457 16.0194L22.5726 12.2163C22.4812 12.0564 22.3111 11.9577 22.1269 11.9577C21.9427 11.9577 21.7726 12.0564 21.6812 12.2163L19.5081 16.0194C19.4674 16.0905 19.446 16.171 19.446 16.2529C19.446 16.5129 19.6568 16.7237 19.9168 16.7237L24.337 16.7237Z" fill="#3C3C3C"/>
</svg>
