<svg width="24" height="24" viewBox="0 0 24 24" fill="none" xmlns="http://www.w3.org/2000/svg">
<path d="M2 14.0882V10.5204C2 9.69199 2.67157 9.02042 3.5 9.02042H7.47311L11.7864 4.70711C12.4164 4.07714 13.4935 4.52331 13.4935 5.41421V19.1944C13.4935 20.0853 12.4164 20.5314 11.7864 19.9015L7.47311 15.5882H3.5C2.67157 15.5882 2 14.9166 2 14.0882Z" fill="white"/>
<path d="M14.8491 8.25347C16.3612 8.97739 17.4032 10.4643 17.4032 12.1959C17.4032 13.9274 16.3612 15.4144 14.8491 16.1285V8.25347Z" fill="white"/>
<path d="M14.8491 5.00564V4.80998C14.8491 4.19368 15.4928 3.75346 16.0853 3.97846C19.5487 5.24042 22.0007 8.43934 22.0007 12.1959C22.0007 15.9524 19.5487 19.1513 16.0853 20.4133C15.4928 20.6285 14.8491 20.1981 14.8491 19.5818V19.3861C14.8491 19.0144 15.0943 18.6916 15.4621 18.5546C18.098 17.547 19.9574 15.072 19.9574 12.1959C19.9574 9.31978 18.098 6.84477 15.4621 5.83716C15.1045 5.7002 14.8491 5.37738 14.8491 5.00564Z" fill="white"/>
</svg>
