<svg width="28" height="28" viewBox="0 0 28 28" fill="none" xmlns="http://www.w3.org/2000/svg">
<path d="M14 3C17.0376 3 19.788 4.23122 21.778 6.22204C23.7688 8.21205 25 10.9625 25 14C25 17.0376 23.7688 19.788 21.778 21.778C19.788 23.7688 17.0376 25 14 25C10.9625 25 8.21205 23.7688 6.22204 21.778C4.23042 19.788 3 17.0376 3 14C3 10.9625 4.23122 8.21205 6.22204 6.22204C8.21205 4.23042 10.9625 3 14 3Z" fill="#E91C21" stroke="#E91C21" stroke-width="2"/>
<path d="M13.9997 23.1672C19.0626 23.1672 23.1669 19.0629 23.1669 14C23.1669 8.93714 19.0626 4.83279 13.9997 4.83279C8.93687 4.83279 4.83252 8.93714 4.83252 14C4.83252 19.0629 8.93687 23.1672 13.9997 23.1672Z" fill="white"/>
<path d="M14 17.2437L17.7586 21.0008C16.6397 21.6023 15.3603 21.9448 14 21.9448C12.6404 21.9448 11.3611 21.6031 10.2429 21.0016L14 17.2437ZM6.99925 10.2414L10.7555 14L6.99764 17.7571C6.39607 16.6389 6.05518 15.3588 6.05518 14C6.05518 12.6405 6.39687 11.3611 6.99925 10.2414ZM21.9448 14C21.9448 15.3596 21.6031 16.6389 21.0015 17.7571L17.2437 14L21.0007 10.2414C21.6023 11.3603 21.9448 12.6397 21.9448 14ZM14 6.05521C15.3595 6.05521 16.6389 6.39691 17.7586 6.99929L14 10.7563L10.2413 6.99929C11.3603 6.39771 12.6396 6.05521 14 6.05521Z" fill="#3588FD"/>
<path d="M21.4777 4.83279L23.1669 6.52201L15.6873 14L23.1669 21.478L21.4777 23.1672L13.9997 15.6876L6.52174 23.1672L4.83252 21.478L12.3105 14L4.83252 6.52201L6.52174 4.83279L13.9997 12.3124L21.4777 4.83279Z" fill="#E91C21"/>
</svg>
