<svg width="36" height="36" viewBox="0 0 36 36" fill="none" xmlns="http://www.w3.org/2000/svg">
<path d="M18 29.5C18 26.5 18 23 21.5 20C25 16.9999 25 15.8609 25 12.5955" stroke="#3588FD" stroke-width="3" stroke-linecap="square"/>
<path d="M25.6104 7.85443C25.3113 7.43566 24.6889 7.43566 24.3898 7.85442L21.0153 12.5785C20.6323 13.1147 21.0774 13.8488 21.7299 13.7572L25 13.2982L28.2701 13.7572C28.9227 13.8488 29.3677 13.1147 28.9847 12.5785L25.6104 7.85443Z" fill="#3588FD"/>
<path d="M11.6104 7.85443C11.3113 7.43566 10.6889 7.43566 10.3898 7.85442L7.01535 12.5785C6.63235 13.1147 7.07736 13.8488 7.7299 13.7572L11 13.2982L14.2701 13.7572C14.9227 13.8488 15.3677 13.1147 14.9847 12.5785L11.6104 7.85443Z" fill="#3588FD"/>
<path fill-rule="evenodd" clip-rule="evenodd" d="M11.0753 18.6912C11.6574 19.435 12.4211 20.1853 13.3922 21.0254L15.7586 19.1092C15.6667 19.0263 15.5726 18.9436 15.4763 18.8611C14.5859 18.0979 13.9848 17.5038 13.5712 17.0077L11.0753 18.6912ZM12.7048 15.4812C12.5155 14.825 12.5001 14.0429 12.5001 12.5955V10.5H9.50011V12.5955L9.50005 12.7588C9.49933 14.251 9.49866 15.6211 10.0496 16.9659C10.0822 17.0454 10.1164 17.1244 10.1524 17.2028L12.7048 15.4812ZM14.6527 22.2566L16.9848 20.3681C18.0072 21.5769 18.634 22.8161 19.0026 24.08C19.5005 25.787 19.5003 27.47 19.5001 28.9211L19.5001 29H16.5001C16.5001 27.4689 16.4907 26.182 16.1226 24.92C15.8717 24.0596 15.4401 23.1738 14.6527 22.2566Z" fill="#3588FD"/>
</svg>
