<svg width="14" height="16" viewBox="0 0 14 16" fill="none" xmlns="http://www.w3.org/2000/svg">
<path d="M4.86216 10.7784C3.26877 9.86787 2.47207 9.41261 2.20549 8.81673C1.97301 8.29706 1.97301 7.70294 2.20549 7.18327C2.47207 6.58739 3.26877 6.13213 4.86216 5.22162L8.01544 3.41975C9.9807 2.29674 10.9633 1.73524 11.7691 1.82247C12.4719 1.89856 13.1097 2.26868 13.5245 2.84119C14 3.4975 14 4.62924 14 6.89272V9.10728C14 11.3708 14 12.5025 13.5245 13.1588C13.1097 13.7313 12.4719 14.1014 11.7691 14.1775C10.9633 14.2648 9.9807 13.7033 8.01544 12.5803L4.86216 10.7784Z" fill="white"/>
</svg>
