<svg width="28" height="28" viewBox="0 0 28 28" fill="none" xmlns="http://www.w3.org/2000/svg">
<path d="M4 14V3.5H8.97L10.7656 1H17.25L19.05 3.51L24 3.49359V14C24 15.6569 22.6569 17 21 17H18.1304L23.5 23.5C23.5 23.5 20 27 14 27C8 27 4.5 23.5 4.5 23.5L9.86957 17H7C5.34315 17 4 15.6569 4 14Z" fill="white"/>
<path fill-rule="evenodd" clip-rule="evenodd" d="M23 4.5H18.5L16.75 2H11.25L9.5 4.5H5V14C5 15.1046 5.89543 16 7 16H21C22.1046 16 23 15.1046 23 14V4.5ZM14 14.5C16.4853 14.5 18.5 12.4853 18.5 10C18.5 7.51472 16.4853 5.5 14 5.5C11.5147 5.5 9.5 7.51472 9.5 10C9.5 12.4853 11.5147 14.5 14 14.5ZM16.7007 10.0497C16.7007 11.5314 15.4918 12.7325 14.0007 12.7325C12.5095 12.7325 11.3007 11.5314 11.3007 10.0497C11.3007 8.56809 12.5095 7.36697 14.0007 7.36697C15.4918 7.36697 16.7007 8.56809 16.7007 10.0497ZM13.9929 26C10.8316 26 8.14784 25.0571 6 23.1713L7.59775 21.2989C9.28718 22.7867 11.3992 23.5298 13.9929 23.5298C16.5942 23.5298 18.7112 22.7825 20.4014 21.288L22 23.1604C19.8497 25.0529 17.1617 26 13.9929 26ZM13.9279 21.6835C11.9651 21.6835 10.2432 21.0789 8.81211 19.8766L10.4107 18.005C11.3875 18.8136 12.5435 19.2141 13.9279 19.2141C15.314 19.2141 16.4716 18.8128 17.4501 18H17.5935L19.1312 19.8018C17.6843 21.0537 15.9316 21.6835 13.9279 21.6835Z" fill="#2A2A2A"/>
</svg>
