<svg width="24" height="24" viewBox="0 0 24 24" fill="none" xmlns="http://www.w3.org/2000/svg">
<path fill-rule="evenodd" clip-rule="evenodd" d="M15 5C13.8954 5 13 5.89543 13 7V17C13 19.2091 11.2091 21 9 21C6.79086 21 5 19.2091 5 17V15H7V17C7 18.1046 7.89543 19 9 19C10.1046 19 11 18.1046 11 17V7C11 4.79086 12.7909 3 15 3C17.2091 3 19 4.79086 19 7V10.126C20.7252 10.5701 22 12.1362 22 14C22 16.2091 20.2091 18 18 18C15.7909 18 14 16.2091 14 14C14 12.1362 15.2748 10.5701 17 10.126V7C17 5.89543 16.1046 5 15 5ZM6 8C4.89543 8 4 8.89543 4 10C4 11.1046 4.89543 12 6 12C7.10457 12 8 11.1046 8 10C8 8.89543 7.10457 8 6 8ZM2 10C2 7.79086 3.79086 6 6 6C8.20914 6 10 7.79086 10 10C10 12.2091 8.20914 14 6 14C3.79086 14 2 12.2091 2 10ZM16 14C16 12.8954 16.8954 12 18 12C19.1046 12 20 12.8954 20 14C20 15.1046 19.1046 16 18 16C16.8954 16 16 15.1046 16 14Z" fill="#3C3C3C"/>
</svg>
