<svg width="30" height="24" viewBox="0 0 30 24" fill="none" xmlns="http://www.w3.org/2000/svg">
<circle cx="15" cy="12" r="10" fill="#F5373C"/>
<path d="M13.3844 7.24295L13.8202 8.73793C13.0214 8.78555 12.1003 8.90457 11.5474 8.98462L11.3237 11.1488H17.9833H20.035L20.2102 11.7137V17.094H18.774C18.3977 17.094 18.09 16.7197 18.0616 16.319L18.0594 16.2587V15.288H11.3237V16.2587C11.3237 16.6612 11.0339 17.0546 10.665 17.0912L10.6091 17.094H9.11084V11.7137L10.2396 7.68385L10.7355 7.5782C10.7918 7.56569 12.105 7.35195 13.3844 7.24295ZM16.4417 7.24295L18.2444 4.46533L18.7012 7.68385L22.1108 7.50961L18.7012 9.9585H15.4675L14.128 5.29068L16.4417 7.24295Z" fill="white"/>
<path d="M3 12L2.27417 11.3121L1.62226 12L2.27417 12.6879L3 12ZM3 12C2.27417 12.6879 2.27431 12.688 2.27448 12.6882L2.275 12.6887L2.27669 12.6905L2.28265 12.6968L2.30475 12.7199C2.32396 12.74 2.35204 12.7693 2.3886 12.8071C2.46171 12.8828 2.56872 12.9928 2.70635 13.1322C2.98155 13.411 3.37951 13.8078 3.87391 14.2833C4.86158 15.2332 6.23951 16.5024 7.7962 17.7744C9.34912 19.0432 11.1011 20.3323 12.8357 21.3089C14.5435 22.2704 16.3563 23 18 23C24.0751 23 29 18.0751 29 12C29 5.92487 24.0751 1 18 1C16.3563 1 14.5435 1.7296 12.8357 2.69112C11.1011 3.66773 9.34912 4.95676 7.7962 6.22563C6.23951 7.49758 4.86158 8.76685 3.87391 9.71675C3.37951 10.1922 2.98155 10.589 2.70635 10.8678C2.56872 11.0072 2.46171 11.1172 2.3886 11.1929C2.35204 11.2307 2.32396 11.26 2.30475 11.2801L2.28265 11.3032L2.27669 11.3095L2.275 11.3113L2.27448 11.3118C2.27431 11.312 2.27417 11.3121 3 12Z" fill="#F5373C" stroke="white" stroke-width="2"/>
<path d="M16.2736 7.77761L16.7094 9.2726C15.9105 9.32022 14.9894 9.43924 14.4366 9.51929L14.2128 11.6835H20.8724H22.9242L23.0993 12.2484V17.6286H21.6632C21.2868 17.6286 20.9792 17.2544 20.9507 16.8537L20.9486 16.7934V15.8227H14.2128V16.7934C14.2128 17.1959 13.9231 17.5893 13.5542 17.6259L13.4983 17.6286H12V12.2484L13.1288 8.21852L13.6247 8.11287C13.681 8.10035 14.9942 7.88662 16.2736 7.77761ZM19.3309 7.77761L21.1335 5L21.5904 8.21852L25 8.04428L21.5904 10.4932H18.3567L17.0172 5.82534L19.3309 7.77761Z" fill="white"/>
</svg>
