<svg width="24" height="24" viewBox="0 0 24 24" fill="none" xmlns="http://www.w3.org/2000/svg">
<path d="M8.85714 15.0171V20H6V4H11.3257C13.8552 4 15.6838 4.45714 16.8114 5.37143C17.9543 6.27048 18.5257 7.61905 18.5257 9.41714C18.5257 11.2914 17.9162 12.6933 16.6971 13.6229C15.4781 14.5524 13.6876 15.0171 11.3257 15.0171H8.85714ZM8.85714 6.62857V12.3886H11.5314C12.8724 12.3886 13.8781 12.16 14.5486 11.7029C15.219 11.2305 15.5543 10.4457 15.5543 9.34857C15.5543 8.3581 15.2419 7.65714 14.6171 7.24571C13.9924 6.83429 12.979 6.62857 11.5771 6.62857H8.85714Z" fill="#3C3C3C"/>
</svg>
