<svg width="30" height="16" viewBox="0 0 30 16" fill="none" xmlns="http://www.w3.org/2000/svg">
<path d="M0.62509 8.01996C0.61099 5.70999 2.2469 4.37988 4.4284 4.37988C6.5398 4.37988 7.9662 5.59788 7.9662 7.50179C7.9662 9.08392 7.0014 9.96602 5.3652 10.7499C4.75 11.0441 4.0647 11.31 3.3658 11.5199H8.036V13.4801H0.62509V10.8201C2.0933 10.3299 2.9042 10.0219 4.2607 9.36397C5.2953 8.85992 5.9385 8.41191 5.9385 7.59999C5.9385 6.81587 5.3513 6.19992 4.4284 6.19992C3.2119 6.19992 2.6245 7.09593 2.6525 8.01996H0.62509Z" fill="#606570"/>
<path d="M17.7404 8.71999V9.41982C17.7404 11.73 16.1743 13.62 13.3358 13.62C10.609 13.62 8.73535 11.674 8.73535 8.99984C8.73535 6.32594 10.5531 4.37988 13.4056 4.37988C15.8526 4.37988 17.3767 5.79385 17.7404 7.45985H15.7128C15.3634 6.66183 14.4962 6.19992 13.4615 6.19992C11.6856 6.19992 10.6929 7.57175 10.6929 8.99984C10.6929 10.4279 11.6998 11.8 13.4477 11.8C14.5384 11.8 15.4472 11.2681 15.7269 10.3999H13.0702V8.71999H17.7404Z" fill="#606570"/>
<path d="M20.7602 13.4801H18.8027V4.51978H20.7602V13.4801Z" fill="#606570"/>
<path d="M29.444 7.18001H27.4164C27.2204 6.57797 26.6892 6.05979 25.5007 6.05979C24.48 6.05979 23.9626 6.45195 23.9626 7.01185C23.9626 7.69797 24.9413 7.89395 26.1719 8.10383L26.2257 8.11303C27.8447 8.38994 29.5 8.67304 29.5 10.7499C29.5 12.696 27.8918 13.62 25.7244 13.62C23.7248 13.62 21.935 12.4439 21.7393 10.68H23.7667C24.0186 11.408 24.7597 11.9399 25.8223 11.9399C26.8431 11.9399 27.4164 11.604 27.4164 10.96C27.4164 10.1657 26.2253 9.97422 25.0346 9.78279C25.0082 9.77854 24.9818 9.77429 24.9554 9.77004C23.6829 9.55995 21.8931 8.98593 21.8931 7.10984C21.8931 5.41581 23.3754 4.37988 25.5708 4.37988C27.738 4.37988 29.2342 5.47186 29.444 7.18001Z" fill="#606570"/>
</svg>
