<svg id="vector" xmlns="http://www.w3.org/2000/svg" width="42" height="42" viewBox="0 0 42 42"><path fill="#000" d="M21,12L28.91,29.485C29.137,29.989 28.943,30.151 28.478,29.85L21,25L13.51,29.85C13.043,30.152 12.846,29.996 13.078,29.485L21,12Z" stroke-width="1" fill-rule="evenodd" stroke="#00000000" id="path_0"/><path fill="#000" d="M21,30L21,30A1,1 0,0 1,22 31L22,33A1,1 0,0 1,21 34L21,34A1,1 0,0 1,20 33L20,31A1,1 0,0 1,21 30z" stroke-width="1" fill-rule="evenodd" stroke="#00000000" id="path_1"/><path fill="#000" d="M21,5L21,5A1,1 0,0 1,22 6L22,8A1,1 0,0 1,21 9L21,9A1,1 0,0 1,20 8L20,6A1,1 0,0 1,21 5z" stroke-width="1" fill-rule="evenodd" stroke="#00000000" id="path_2"/></svg>