<svg width="29" height="16" viewBox="0 0 29 16" fill="none" xmlns="http://www.w3.org/2000/svg">
<path fill-rule="evenodd" clip-rule="evenodd" d="M5 6V10.0625C5 11.1382 4.64701 11.5 3.75 11.5C3.00479 11.5 2.5 11.1518 2.5 10.0625V6H0V10.5C0 12.6515 1.45917 14 3.75 14C6.19263 14 7.5 12.6515 7.5 10.5V6H5ZM18.5 11.5V4H16V13.9993L20.5 14C23.013 14.0276 24.5 12.4576 24.5 10C24.5 7.4872 23.2711 6 20.5 6H19.5V8.5H20.5C21.6954 8.5 22 8.9645 22 10C22 11.0631 21.3422 11.5138 20.5 11.5H18.5ZM13 6C12.1529 6 11.7541 6.19542 11.5 7L11 6H9.01412V14H11.5V9.75C11.5 8.87606 12.1106 8.5 13 8.5H15V6H13ZM28.25 14V6H25.75V14H28.25ZM27 5C27.9508 5 28.75 4.32569 28.75 3.5C28.75 2.67431 27.9508 2 27 2C26.0492 2 25.25 2.67431 25.25 3.5C25.25 4.32569 26.0492 5 27 5Z" fill="#606570"/>
</svg>
